<?xml version="1.0" encoding="utf-8"?>
<svg width="105.69861px" height="32px" viewBox="0 0 105.69861 32" version="1.1" xmlns:xlink="http://www.w3.org/1999/xlink" xmlns="http://www.w3.org/2000/svg">
  <g id="Group-2">
    <g id="Camocopy" transform="translate(23.698408 0)">
      <g transform="translate(0, 3.8636365)" id="Camocopy">
        <path d="M10.9432 7.64773L9.17045 7.64773Q8.95455 6.51705 8.1108 5.91193Q7.26704 5.30682 6.15341 5.30682Q5.15341 5.30682 4.35795 5.8125Q3.5625 6.31818 3.10511 7.29261Q2.64773 8.26705 2.64773 9.68182Q2.64773 11.1023 3.10795 12.0795Q3.56818 13.0568 4.3608 13.5568Q5.15341 14.0568 6.14773 14.0568Q7.25 14.0568 8.09659 13.4602Q8.94318 12.8636 9.17045 11.75L10.9432 11.7557Q10.7557 12.9034 10.1023 13.7841Q9.44886 14.6648 8.43182 15.1619Q7.41477 15.6591 6.13636 15.6591Q4.625 15.6591 3.44318 14.9403Q2.26136 14.2216 1.58239 12.8807Q0.903409 11.5398 0.903409 9.68182Q0.903409 7.81818 1.58523 6.48011Q2.26705 5.14205 3.44886 4.4233Q4.63068 3.70455 6.13636 3.70455Q7.36932 3.70455 8.38352 4.17045Q9.39773 4.63636 10.071 5.51989Q10.7443 6.40341 10.9432 7.64773ZM15.4489 15.6932Q14.6193 15.6932 13.9517 15.3864Q13.2841 15.0795 12.892 14.4858Q12.5 13.892 12.5 13.0341Q12.5 12.2898 12.7869 11.8125Q13.0739 11.3352 13.554 11.0568Q14.0341 10.7784 14.6307 10.6392Q15.2273 10.5 15.8466 10.4261Q16.6307 10.3352 17.1165 10.2756Q17.6023 10.2159 17.8267 10.0795Q18.0511 9.94318 18.0511 9.63636L18.0511 9.59659Q18.0511 8.85227 17.6335 8.44318Q17.2159 8.03409 16.392 8.03409Q15.5341 8.03409 15.0426 8.40909Q14.5511 8.78409 14.3636 9.25L12.767 8.88636Q13.1932 7.69318 14.1903 7.17614Q15.1875 6.65909 16.3693 6.65909Q16.892 6.65909 17.4773 6.78125Q18.0625 6.90341 18.5824 7.23011Q19.1023 7.55682 19.429 8.15341Q19.7557 8.75 19.7557 9.70455L19.7557 15.5L18.0966 15.5L18.0966 14.3068L18.0284 14.3068Q17.7841 14.7955 17.1591 15.2443Q16.5341 15.6932 15.4489 15.6932ZM15.8182 14.3295Q16.5284 14.3295 17.0284 14.0511Q17.5284 13.7727 17.7926 13.321Q18.0568 12.8693 18.0568 12.3523L18.0568 11.2273Q17.9375 11.3466 17.5341 11.4375Q17.1307 11.5284 16.6818 11.5909Q16.233 11.6534 15.9545 11.6932Q15.2159 11.7898 14.6903 12.0824Q14.1648 12.375 14.1648 13.0568Q14.1648 13.6875 14.6307 14.0085Q15.0966 14.3295 15.8182 14.3295ZM22.017 15.5L22.017 6.77273L23.6477 6.77273L23.6477 8.19318L23.7557 8.19318Q24.0284 7.47159 24.6477 7.06534Q25.267 6.65909 26.1307 6.65909Q27.0057 6.65909 27.5994 7.06818Q28.1932 7.47727 28.4773 8.19318L28.5682 8.19318Q28.8864 7.49432 29.5653 7.0767Q30.2443 6.65909 31.1875 6.65909Q32.375 6.65909 33.1278 7.40625Q33.8807 8.15341 33.8807 9.64773L33.8807 15.5L32.1818 15.5L32.1818 9.80682Q32.1818 8.92045 31.7017 8.52273Q31.2216 8.125 30.5455 8.125Q29.7159 8.125 29.2557 8.63636Q28.7955 9.14773 28.7955 9.9375L28.7955 15.5L27.1023 15.5L27.1023 9.69886Q27.1023 8.98864 26.6591 8.55682Q26.2159 8.125 25.5057 8.125Q24.7841 8.125 24.25 8.68182Q23.7159 9.23864 23.7159 10.1193L23.7159 15.5L22.017 15.5ZM39.8295 15.6761Q38.6023 15.6761 37.6875 15.1136Q36.7727 14.5511 36.267 13.5369Q35.7614 12.5227 35.7614 11.1761Q35.7614 9.81818 36.267 8.80114Q36.7727 7.78409 37.6875 7.22159Q38.6023 6.65909 39.8295 6.65909Q41.0625 6.65909 41.9744 7.22159Q42.8864 7.78409 43.392 8.80114Q43.8977 9.81818 43.8977 11.1761Q43.8977 12.5227 43.392 13.5369Q42.8864 14.5511 41.9744 15.1136Q41.0625 15.6761 39.8295 15.6761ZM39.8352 14.25Q40.6364 14.25 41.1563 13.8295Q41.6761 13.4091 41.929 12.7074Q42.1818 12.0057 42.1818 11.1705Q42.1818 10.3352 41.929 9.63068Q41.6761 8.92614 41.1563 8.50284Q40.6364 8.07955 39.8352 8.07955Q39.0341 8.07955 38.5114 8.50284Q37.9886 8.92614 37.733 9.63068Q37.4773 10.3352 37.4773 11.1705Q37.4773 12.0057 37.733 12.7074Q37.9886 13.4091 38.5114 13.8295Q39.0341 14.25 39.8352 14.25ZM49.4659 15.6761Q48.1989 15.6761 47.2869 15.0994Q46.375 14.5227 45.8864 13.5057Q45.3977 12.4886 45.3977 11.1761Q45.3977 9.84091 45.8977 8.82386Q46.3977 7.80682 47.3097 7.23295Q48.2216 6.65909 49.4489 6.65909Q50.4432 6.65909 51.2216 7.02557Q52 7.39205 52.4801 8.05114Q52.9602 8.71023 53.0511 9.59091L51.3977 9.59091Q51.2614 8.97727 50.7756 8.53409Q50.2898 8.09091 49.4773 8.09091Q48.4148 8.09091 47.7642 8.91193Q47.1136 9.73295 47.1136 11.1364Q47.1136 12.5625 47.7557 13.4006Q48.3977 14.2386 49.4773 14.2386Q50.2045 14.2386 50.7216 13.8409Q51.2386 13.4432 51.3977 12.7386L53.0511 12.7386Q52.9602 13.5852 52.5 14.25Q52.0398 14.9148 51.2699 15.2955Q50.5 15.6761 49.4659 15.6761ZM58.5511 15.6761Q57.3239 15.6761 56.4091 15.1136Q55.4943 14.5511 54.9886 13.5369Q54.483 12.5227 54.483 11.1761Q54.483 9.81818 54.9886 8.80114Q55.4943 7.78409 56.4091 7.22159Q57.3239 6.65909 58.5511 6.65909Q59.7841 6.65909 60.696 7.22159Q61.608 7.78409 62.1136 8.80114Q62.6193 9.81818 62.6193 11.1761Q62.6193 12.5227 62.1136 13.5369Q61.608 14.5511 60.696 15.1136Q59.7841 15.6761 58.5511 15.6761ZM58.5568 14.25Q59.358 14.25 59.8778 13.8295Q60.3977 13.4091 60.6506 12.7074Q60.9034 12.0057 60.9034 11.1705Q60.9034 10.3352 60.6506 9.63068Q60.3977 8.92614 59.8778 8.50284Q59.358 8.07955 58.5568 8.07955Q57.7557 8.07955 57.233 8.50284Q56.7102 8.92614 56.4545 9.63068Q56.1989 10.3352 56.1989 11.1705Q56.1989 12.0057 56.4545 12.7074Q56.7102 13.4091 57.233 13.8295Q57.7557 14.25 58.5568 14.25ZM64.5114 18.7727L64.5114 6.77273L66.1705 6.77273L66.1705 8.1875L66.3125 8.1875Q66.4659 7.91477 66.7415 7.55682Q67.017 7.19886 67.5142 6.92898Q68.0114 6.65909 68.8182 6.65909Q69.875 6.65909 70.7017 7.19318Q71.5284 7.72727 72.0057 8.73295Q72.483 9.73864 72.483 11.1534Q72.483 12.5625 72.0114 13.5767Q71.5398 14.5909 70.7159 15.1307Q69.892 15.6705 68.8352 15.6705Q68.0398 15.6705 67.5398 15.4034Q67.0398 15.1364 66.7528 14.7784Q66.4659 14.4205 66.3125 14.142L66.2102 14.142L66.2102 18.7727L64.5114 18.7727ZM66.1761 11.1364Q66.1761 12.5114 66.767 13.3665Q67.358 14.2216 68.4545 14.2216Q69.2159 14.2216 69.7301 13.8153Q70.2443 13.4091 70.5057 12.7102Q70.767 12.0114 70.767 11.1364Q70.767 10.267 70.5085 9.58239Q70.25 8.89773 69.7386 8.5Q69.2273 8.10227 68.4545 8.10227Q67.3409 8.10227 66.7585 8.93466Q66.1761 9.76705 66.1761 11.1364ZM75.1534 18.7727Q74.7727 18.7727 74.4602 18.7131Q74.1477 18.6534 73.9943 18.5852L74.4034 17.1932Q75.1023 17.3864 75.5767 17.2244Q76.0511 17.0625 76.375 16.1932L76.5852 15.6136L73.392 6.77273L75.2102 6.77273L77.4205 13.5455L77.5114 13.5455L79.7216 6.77273L81.5455 6.77273L77.9489 16.6648Q77.5682 17.6932 76.8864 18.233Q76.2045 18.7727 75.1534 18.7727Z" />
      </g>
    </g>
    <path d="M2.89949 20.8995L2.8995 6.8995L16.8995 6.8995L16.8995 20.8995L2.89949 20.8995Z" transform="rotate(45 9.9 13.9)" id="Rectangle-3" fill="#46A758" fill-rule="evenodd" stroke="none" />
  </g>
</svg>